<svg xmlns="http://www.w3.org/2000/svg" viewBox="0 0 1154 390" enable-background="new 0 0 1154 390"><g fill="#EF5336"><path d="M415.8 241l31-29.3c8.4 10.2 16.4 16.1 27 16.1 12.1 0 19.8-8.2 19.8-24.3v-109.7h47.8v110.1c0 21.8-5.5 37.2-17.1 48.8-11.4 11.4-27.8 17.6-47.6 17.6-30.2 0-48.8-12.7-60.9-29.3zM567.7 191.2v-97.4h48.8v96.4c0 25 12.6 36.9 32 36.9 19.3 0 32-11.4 32-35.7v-97.6h48.8v96.2c0 56-32 80.6-81.3 80.6s-80.3-25.1-80.3-79.4zM757.9 93.8h50.8l41.4 67.2 41.4-67.2h50.8v173.5h-47.8v-99.7l-44.4 67.9h-1l-44.1-67.4v99.2h-47.1v-173.5zM1033.1 92.5h46.4l73.9 174.8h-51.6l-12.6-31h-66.9l-12.4 31h-50.6l73.8-174.8zm42.1 106.4l-19.3-49.3-19.6 49.3h38.9z"/></g><g><circle fill="#EF5336" cx="194.3" cy="194.3" r="194.3"/><g><g fill="#262323" stroke="#EF5336" stroke-width="5" stroke-linecap="round" stroke-linejoin="round" stroke-miterlimit="10"><path d="M179.2 384.8l-2-16 7.4-17.7 20.8-1.4-9.1 17.5-6.6 11.9zM194.6 309.1l-27.1 8.3 17.1 12.9h13.7zM211.7 345.1l-6.3 4.6-20.8 1.4v-20.8h34.5zM205.4 320.8l-10.8-11.7-10 21.2h34.5zM163.9 294l3.6 23.4 27.1-8.3zM163.9 269.5l-11.1 12.1 11.1 12.4 30.7 15.1-13.9-24.5zM126.3 280.9l26.5.7 11.1 12.4 3.6 23.4zM146.9 257.7l-20.6-4v27.2l26.5.7 11.1-12.1zM103.5 255l4 14.5 18.8 11.4v-27.2zM126.3 226.1v27.6l-22.8 1.3v-6.7zM136.7 211.9l-10.4 14.2v27.6l31.8-34.9zM158.1 250.1l-11.2 7.6-20.6-4 20.6-22.6zM182.9 232.8l-36-1.7 11.2 19zM156.1 190l-19.4 21.9 21.4 6.9 24.8-37.2zM194.6 226.1l-30.7-16.1-5.8 8.8-11.2 12.3 36 1.7zM184.6 205.9l-7.4-15.8-13.3 19.9 15.3 8.1zM213.2 232.8l-18.6-6.7-15.4-8 5.4-12.2 17.2 6zM164.9 177.1l-8.8 12.9 26.8-8.4zM219.1 177.1l-36.2 4.5-5.7 8.5 24.6 8.1zM230.1 236.2l-16.9-3.4-11.4-20.9 28.3-6zM230.1 183.6l-11-6.5-17.3 21.1v13.7l28.3-6zM159.8 138.7l28.6 23.5v18.7l-5.5.7-18-4.5zM210.2 151l-36.5-.9 14.7 12.1 24.8-2zM216 170.3l-2.8-10.1-24.8 2v18.7l30.7-3.8zM251 229l-20.9-30.8v38zM272.3 204.1l4.9 22-26.2 2.9-20.9-30.8v-14.6zM273.7 244.4l-43.6-8.2 20.9-7.2zM287.4 244.4h-13.7l-22.7-15.4 26.2-2.9 21.8 9.2zM196.2 120.3l-22.5 29.8 36.5.9zM299 210l-26.7-5.9 4.9 22zM303.4 226.1l-4.4 9.2-21.8-9.2 21.8-16.1zM288.3 183.6l-16 20.5 26.7 5.9 8.8-24.2zM277.2 164.1l-4.9 17.5v22.5l16-20.5 10.7-8.4zM311.8 160.2l-12.8 15-10.7 8.4 19.5 2.2zM290.3 142.3l8.7 32.9-21.8-11.1zM296.7 127.2l15.1 15.6v17.4l-12.8 15-8.7-32.9zM299 115.8l28.8 11.4-11.1 4.3-4.9 11.3-15.1-15.6zM305.2 104.7l-6.2 2.3v8.8l28.8 11.4zM327.8 107.8l-12.4-.8-10.2-2.3 22.6 22.5 13.8-3zM356.7 107.8l-15.1 16.4-13.8-16.4zM365.1 115.8l-23.5 8.4 15.1-16.4zM156.1 124.2l3.7 14.5 13.9 11.4 22.5-29.8-21.9-2.4zM174.3 85.9v32l21.9 2.4-11.6-28.1zM146.9 96.2l11.2-10.3h16.2v32zM145.1 131.7l1.8-35.5 27.4 21.7-18.2 6.3zM126.3 112.1l-5.8 30.2 16.2-6.6 8.4-4 1.2-23.9zM103.5 111.7l22.8-9.8 20.6-5.7-.6 11.6-20 4.3zM108.5 142.8l12-.5 5.8-30.2-22.8-.4zM80.1 135.7l3.1-11.5 20.3-12.5 5 31.1zM52.6 145.9l9.8 10.3 7.9-6.1 12.9-4.2 25.3-3.1-28.4-7.1zM66.3 122.3l-13.7 23.6 27.5-10.2 3.1-11.5h-9.3zM52.6 109.5l-12 12.8 8.9 13.4 3.1 10.2 13.7-23.6zM31.9 96.2l-2.8 5.7 4.5 10.2 7 10.2zM46.2 101.9l-14.3-5.7 8.7 26.1 12-12.8z"/></g><path fill="#262323" d="M73.4 154.5l5.8-1-2.8 5.3 2.8 5.2-5.8-1-4.2 4.2-.8-5.8-5.3-2.7 5.3-2.6.8-5.8zM289 111.3l4.6-3.7.1 5.9 4.9 3.3-5.6 1.9-1.6 5.7-3.5-4.7-5.9.2 3.4-4.8-2.1-5.6zM218.6 314.7l5.8 1.3-4.5 3.8.6 5.8-5.1-3.1-5.4 2.4 1.4-5.8-3.9-4.4 5.9-.4 3-5.1z"/></g></g><g fill="#fff"><path d="M327.7 320.1c0 4 .6 6.3 2.4 7 .3.3.3.9-.1 1.2-1.2 0-3 .4-4.9.9-5.3 1.4-12.4 2.6-17.8 2.6-11.8 0-22.6-3.3-30.2-11-6-6-9.1-13.8-9.1-22.5 0-8.4 2.8-17 8.9-23.5 6.6-6.9 16.5-11.6 31.4-11.6 5.7 0 10.9 1.1 12.6 1.5 1.9.4 5 1.1 6.1.9 0 3.3.6 8.4 1.5 14.4-.3.8-2.1.9-2.7.3-2.8-10.7-10.2-14.1-20.3-14.1-19.2 0-27.7 13.7-27.7 28.6 0 19 9.8 34 29.8 34 6.1 0 9.8-1.3 10.9-3 .5-.7 1-2.5 1-5.7v-4c0-8.3-.3-8.9-6.4-9.6l-4.4-.5c-.8-.4-.7-2.2 0-2.5 2.9.2 8.3.3 14.2.3 3.9 0 7.2-.1 10.5-.3.7.4.8 1.9.1 2.5l-1.6.2c-4.2.5-4.3 3.3-4.3 8.3v5.6zM348.8 301.8c0-3.9 0-4.4-2.7-6.1l-.9-.6c-.4-.4-.4-1.5.1-1.8 2.3-.8 7.5-3.4 10-4.9.5.1.8.3.8.7v5.8c0 .5.1.8.3.9 3.5-2.9 7.2-6 10.9-6 2.5 0 4.5 1.6 4.5 4 0 3.3-2.7 4.6-4.3 4.6-1 0-1.5-.3-2.2-.7-1.5-1-3-1.6-4.4-1.6-1.6 0-2.8.9-3.6 2-1 1.4-1.3 4.3-1.3 7.6v13.5c0 7.1.2 8.3 4 8.6l3.6.3c.7.5.5 2.2-.2 2.5-4.7-.2-7.5-.3-11-.3-3.6 0-6.5.1-9.1.3-.7-.3-.9-2-.2-2.5l1.9-.3c3.7-.6 3.8-1.5 3.8-8.6v-17.4zM420.1 310.3c0 12.4-8.5 21.3-20.9 21.3-11.4 0-20.3-8-20.3-20.4 0-12.5 9.4-21.4 21.1-21.4 11.1 0 20.1 8.3 20.1 20.5zm-21.3-17.5c-6.5 0-11.4 6.2-11.4 17.2 0 9 4.1 18.7 12.8 18.7 8.7 0 11.4-9.1 11.4-16.8 0-8.4-3.4-19.1-12.8-19.1zM443.3 315.7c0 6.8 1.7 11.4 9.2 11.4 2.7 0 5.9-1.1 8-3 1.3-1.2 2-2.7 2-5.8v-16.3c0-6.4-.7-6.6-3.7-7.8l-1.3-.5c-.7-.4-.7-1.8.1-2.2 4-.1 9.4-.8 11.6-1.8.5.1.8.3.9.7-.2 1.9-.3 5-.3 8.6v16.7c0 7.8.3 10.8 3.1 10.8 1.2 0 2.5-.2 3.9-.5.6.5.7 2.5-.1 2.9-3.9.8-9.6 1.8-13 3.7-.5 0-1-.3-1.2-.7v-4.1c0-.9-.3-1.4-.9-1.4-3 1.9-7.8 5.2-13.7 5.2-8.7 0-12-4.4-12-12.4v-16.6c0-6.2 0-7.1-3-8.4l-1.2-.5c-.6-.5-.5-1.9.2-2.2 4.6-.1 8.4-1 10.6-1.8.6.1.9.3 1 .7-.2 1.7-.3 3.8-.3 8.6v16.7zM490.7 301.8c0-3.9 0-4.4-2.7-6.1l-.9-.6c-.4-.4-.4-1.5.1-1.8 2.6-1.1 7.2-3.5 9.8-5.4.6 0 1 .2 1.2.7-.2 1.8-.4 3.3-.4 4.6 0 .7.2 1.3.9 1.3 1.3-.6 7.5-4.7 13.9-4.7 10 0 16.5 8.1 16.5 18.1 0 13.8-10.1 23.7-24.2 23.7-1.8 0-4.6-.2-5.5-.4-.9.2-1.4.7-1.4 2.8v10.4c0 7 .2 7.9 3.8 8.4l3.9.5c.7.5.5 2.2-.2 2.5-4.8-.2-7.6-.3-11.1-.3-3.6 0-6.5.1-9.3.3-.7-.3-.9-2-.2-2.5l2.1-.3c3.7-.5 3.8-1.5 3.8-8.6v-42.6zm7.3 18.4c0 3.2 1 4.4 3 6 2 1.5 5.1 2.2 7.1 2.2 8.1 0 12.9-7.5 12.9-17.9 0-7.9-4.5-16-13.4-16-4.3 0-7.3 1.6-8.4 2.8-.9 1.1-1.2 2.6-1.2 5.9v17z"/></g></svg>