<svg xmlns="http://www.w3.org/2000/svg" viewBox="0 0 1057 989" enable-background="new 0 0 1057 989"><g opacity=".65"><path fill="#F5F6F5" d="M497.2 830.5l85.9 67.5-55.6 70.3-64.6 20.3z"/><path fill="#EF5336" d="M381 875.9l99 33.7-17.1 79-73.6-15-37.3-29.7-28.8-72z"/><path fill="#1A1A17" d="M401.6 798l-20.6 77.9-57.8-4 6.1-60.2 36.7-56.1z"/><path fill="#C1C1C1" d="M496.7 779.7l.5 50.8-17.2 79.1-99-33.7 20.6-77.9z"/><path fill="#D78A5E" d="M590 766.8l6.3 41.4-8.1 22.9-5.1 66.9-85.9-67.5-.5-50.8z"/><path fill="#F5F6F5" d="M435.1 699.3l61.6 80.4-95.1 18.3-35.6-42.4 7.5-23.1-16.2-18.2z"/><path fill="#4D4C4D" d="M686.6 734.5l22.8 99.4-89.2-30.3-23.9 4.6-6.3-41.4-37.6-41.7zM342 609.7l93.1 89.6-77.8 15-87.1-29.6z"/><path fill="#EF5336" d="M481.2 638.9l71.2 86.2 37.6 41.7-93.3 12.9-61.6-80.4zM812.1 739.7l66.2 52.2-18.8 53.5-21.3 19.7-32.7 1.4-96.1-32.6-22.8-99.4z"/><path fill="#1A1A17" d="M229 579.1l113 30.6-71.8 75z"/><path fill="#D78A5E" d="M199.3 537.9l29.7 41.2 41.2 105.6-69.1-23.5-48-22.2-11.3-37.4 21.4-63z"/><path fill="#C1C1C1" d="M819.6 654.4l65.4 5.3 22.8 8.3 4.5 23.8-34 100.1-66.2-52.2z"/><path fill="#F5F6F5" d="M686.6 734.5l133-80.1-7.5 85.3z"/><path fill="#1A1A17" d="M558.4 616l128.2 118.5-134.2-9.4-71.2-86.2z"/><path fill="#C1C1C1" d="M408.7 545.8l149.7 70.2-77.2 22.9-46.1 60.4-93.1-89.6z"/><path fill="#EF5336" d="M685 620.3l134.6 34.1-133 80.1-69.3-64.1z"/><path fill="#D78A5E" d="M650.7 538.9l78.7 3.7 19.4 55.7 41.3 41.9 29.5 14.2-134.6-34.1z"/><path fill="#4D4C4D" d="M560.9 544.4l89.8-5.5 34.3 81.4-67.7 50.1-58.9-54.4z"/><path fill="#F5F6F5" d="M503.3 456.5l57.6 87.9-2.5 71.6-149.7-70.2z"/><path fill="#EF5336" d="M277.7 435.6l131 110.2-66.7 63.9-113-30.6z"/><path fill="#F5F6F5" d="M194.8 443.9l82.9-8.3-48.7 143.5-29.7-41.2-36.1.7z"/><path fill="#1A1A17" d="M626.2 450.8l109.5 33.7-6.7 32 .4 26.1-78.7-3.7-89.8 5.5-57.6-87.9z"/><path fill="#EF5336" d="M399.1 441.6l104.2 14.9-94.6 89.3-131-110.2z"/><path fill="#C1C1C1" d="M668.9 325l142.8 78.7-37 22.8-26.1 30.6-12.9 27.4-109.5-33.7z"/><path fill="#EF5336" d="M449.1 336.4l219.8-11.4-42.7 125.8-122.9 5.7z"/><path fill="#C1C1C1" d="M148.6 317.3l86.6 29.4 42.5 88.9-82.9 8.3-5-24.3-23.6-7.6-50.3 1.5zM362.7 347.8l86.4-11.4 54.2 120.1z"/><path fill="#4D4C4D" d="M235.2 346.7l127.5 1.1 140.6 108.7-104.2-14.9-121.4-6z"/><path fill="#EF5336" d="M3.6 274.1l145 43.2-32.7 96.2-58.3-24.7-35.9-40.2z"/><path fill="#F5F6F5" d="M811.4 274.7l99.9 128.2-59.7-8.8-39.9 9.6-142.8-78.7zM51.1 178.9l97.5 138.4-145-43.2 12.3-51.5z"/><path fill="#D78A5E" d="M158.1 149l-9.5 168.3-97.5-138.4 46.7-25.5z"/><path fill="#1A1A17" d="M270.9 259.9l-35.7 86.8-86.6-29.4 9.5-168.3 52.9 20.4 39 32.9 23.4-3.3z"/><path fill="#F5F6F5" d="M449.1 336.4l-86.4 11.4-127.5-1.1 35.7-86.8 2.5-60.9 137.2 27.2z"/><path fill="#1A1A17" d="M564 255.1l104.9 69.9-219.8 11.4-38.5-110.2z"/><path fill="#EF5336" d="M1027 354.2l-25 73.5-18.1 16.1-23.1-7.3-55.1-35.6-94.3-126.2 53.3 8.1 89 13.6z"/><path fill="#4D4C4D" d="M909.1 175.2l131.4 44.6 17 44.5-30.5 89.9-73.3-57.8z"/><path fill="#C1C1C1" d="M324.5 63.9l137.4 172-51.3-9.7-137.2-27.2z"/><path fill="#4D4C4D" d="M649.8 174.4l161.6 100.3-142.5 50.3-104.9-69.9z"/><path fill="#C1C1C1" d="M815.4 143.4l93.7 31.8 44.6 121.2-142.3-21.7z"/><path fill="#EF5336" d="M649.8 174.4l165.6-31-4 131.3z"/><path fill="#1A1A17" d="M596.3 224.7l-28.7-165.5 247.8 84.2-165.6 31z"/><path fill="#D78A5E" d="M379.4 132.7l196.7-24.5 20.2 116.5-32.3 30.4-102.1-19.2z"/><path fill="#EF5336" d="M393.3 0l174.3 59.2 8.5 49-196.7 24.5-54.9-68.8 14.5-42.7 19.4-18.8z"/></g></svg>